<svg width="261" height="46" viewBox="0 0 261 46" fill="none" xmlns="http://www.w3.org/2000/svg">
    <path d="M10 0.638888H20.1174C23.5711 0.638888 26.0903 1.49074 27.675 3.19445C29.2596 4.85556 30.0519 7.43241 30.0519 10.925V12.7139C30.0519 15.0139 29.6863 16.888 28.9549 18.3361C28.2641 19.7843 27.1874 20.8278 25.7246 21.4667V21.5944C29.0565 22.787 30.7224 25.8963 30.7224 30.9222V34.7556C30.7224 38.2056 29.8488 40.8463 28.1016 42.6778C26.3951 44.4667 23.8759 45.3611 20.544 45.3611H10V0.638888ZM19.3251 18.8472C20.6659 18.8472 21.6614 18.4852 22.3115 17.7611C23.0023 17.037 23.3476 15.8231 23.3476 14.1194V11.6278C23.3476 10.0093 23.0632 8.83796 22.4944 8.11389C21.9662 7.38982 21.1129 7.02778 19.9346 7.02778H16.7043V18.8472H19.3251ZM20.544 38.9722C21.7224 38.9722 22.596 38.6528 23.1648 38.0139C23.7337 37.3324 24.0181 36.1824 24.0181 34.5639V30.6667C24.0181 28.6222 23.6727 27.2167 22.982 26.45C22.3318 25.6407 21.2348 25.2361 19.6908 25.2361H16.7043V38.9722H20.544Z" fill="white" />
    <path d="M49.5735 0.638888H58.6547L65.6028 45.3611H58.8985L57.6796 36.4806V36.6083H50.061L48.8421 45.3611H42.6254L49.5735 0.638888ZM56.8872 30.5389L53.9008 8.43333H53.7789L50.8534 30.5389H56.8872Z" fill="white" />
    <path d="M78.6072 0.638888H85.3115V45.3611H78.6072V0.638888Z" fill="white" />
    <path d="M108.8 46C105.549 46 103.091 45.0417 101.425 43.125C99.7592 41.1657 98.9262 38.3759 98.9262 34.7556V32.2H105.265V35.2667C105.265 38.163 106.423 39.6111 108.739 39.6111C109.877 39.6111 110.73 39.2704 111.299 38.5889C111.908 37.8648 112.213 36.7148 112.213 35.1389C112.213 33.2648 111.807 31.625 110.994 30.2194C110.181 28.7713 108.678 27.0463 106.484 25.0444C103.721 22.4889 101.791 20.1889 100.694 18.1444C99.5967 16.0574 99.0481 13.7148 99.0481 11.1167C99.0481 7.58148 99.9014 4.85556 101.608 2.93889C103.315 0.97963 105.793 0 109.044 0C112.254 0 114.671 0.97963 116.296 2.93889C117.962 4.85556 118.795 7.62407 118.795 11.2444V13.0972H112.457V10.7972C112.457 9.26389 112.172 8.15648 111.603 7.475C111.035 6.75093 110.202 6.38889 109.105 6.38889C106.87 6.38889 105.752 7.81574 105.752 10.6694C105.752 12.288 106.159 13.8 106.971 15.2056C107.825 16.6111 109.348 18.3148 111.543 20.3167C114.346 22.8722 116.276 25.1935 117.333 27.2806C118.389 29.3676 118.917 31.8167 118.917 34.6278C118.917 38.2907 118.044 41.1019 116.296 43.0611C114.59 45.0204 112.091 46 108.8 46Z" fill="white" />
    <path d="M137.754 7.02778H130.745V0.638888H151.468V7.02778H144.459V45.3611H137.754V7.02778Z" fill="white" />
    <path d="M173.918 46C170.627 46 168.108 45.0204 166.361 43.0611C164.613 41.1019 163.74 38.3333 163.74 34.7556V11.2444C163.74 7.66667 164.613 4.89815 166.361 2.93889C168.108 0.97963 170.627 0 173.918 0C177.209 0 179.729 0.97963 181.476 2.93889C183.223 4.89815 184.097 7.66667 184.097 11.2444V34.7556C184.097 38.3333 183.223 41.1019 181.476 43.0611C179.729 45.0204 177.209 46 173.918 46ZM173.918 39.6111C176.234 39.6111 177.392 38.1417 177.392 35.2028V10.7972C177.392 7.85833 176.234 6.38889 173.918 6.38889C171.602 6.38889 170.444 7.85833 170.444 10.7972V35.2028C170.444 38.1417 171.602 39.6111 173.918 39.6111Z" fill="white" />
    <path d="M198.382 0.638888H208.317C211.771 0.638888 214.29 1.49074 215.874 3.19445C217.459 4.85556 218.251 7.43241 218.251 10.925V13.6722C218.251 18.3148 216.789 21.2537 213.863 22.4889V22.6167C215.488 23.1278 216.626 24.1713 217.276 25.7472C217.967 27.3231 218.312 29.4315 218.312 32.0722V39.9306C218.312 41.2083 218.353 42.2519 218.434 43.0611C218.515 43.8278 218.719 44.5944 219.044 45.3611H212.217C211.974 44.637 211.811 43.9556 211.73 43.3167C211.649 42.6778 211.608 41.5278 211.608 39.8667V31.6889C211.608 29.6444 211.283 28.2176 210.633 27.4083C210.023 26.5991 208.947 26.1944 207.403 26.1944H205.087V45.3611H198.382V0.638888ZM207.524 19.8056C208.865 19.8056 209.861 19.4435 210.511 18.7194C211.202 17.9954 211.547 16.7815 211.547 15.0778V11.6278C211.547 10.0093 211.263 8.83796 210.694 8.11389C210.166 7.38982 209.312 7.02778 208.134 7.02778H205.087V19.8056H207.524Z" fill="white" />
    <path d="M232.716 0.638888H251V7.02778H239.42V18.8472H248.623V25.2361H239.42V38.9722H251V45.3611H232.716V0.638888Z" fill="white" />
  </svg>