<svg width="118" height="22" viewBox="0 0 118 22" fill="none" xmlns="http://www.w3.org/2000/svg">
  <path d="M0 0.305555H4.95375C6.64478 0.305555 7.87825 0.712963 8.65413 1.52778C9.43002 2.32222 9.81797 3.55463 9.81797 5.225V6.08055C9.81797 7.18056 9.63892 8.07685 9.28081 8.76944C8.94261 9.46204 8.4154 9.96111 7.6992 10.2667V10.3278C9.33055 10.8981 10.1462 12.3852 10.1462 14.7889V16.6222C10.1462 18.2722 9.71849 19.5352 8.86303 20.4111C8.02746 21.2667 6.79399 21.6944 5.16264 21.6944H0V0.305555ZM4.5658 9.01389C5.22232 9.01389 5.70974 8.84074 6.02805 8.49444C6.36626 8.14815 6.53536 7.56759 6.53536 6.75278V5.56111C6.53536 4.78704 6.3961 4.22685 6.11758 3.88056C5.85895 3.53426 5.44116 3.36111 4.86422 3.36111H3.2826V9.01389H4.5658ZM5.16264 18.6389C5.73958 18.6389 6.16731 18.4861 6.44584 18.1806C6.72436 17.8546 6.86362 17.3046 6.86362 16.5306V14.6667C6.86362 13.6889 6.69452 13.0167 6.35631 12.65C6.038 12.263 5.50085 12.0694 4.74485 12.0694H3.2826V18.6389H5.16264Z" fill="black" />
  <path d="M19.3762 0.305555H23.8226L27.2246 21.6944H23.942L23.3452 17.4472V17.5083H19.6149L19.0181 21.6944H15.9742L19.3762 0.305555ZM22.9572 14.6056L21.495 4.03333H21.4353L20.0029 14.6056H22.9572Z" fill="black" />
  <path d="M33.5919 0.305555H36.8745V21.6944H33.5919V0.305555Z" fill="black" />
  <path d="M48.375 22C46.7835 22 45.5798 21.5417 44.7642 20.625C43.9485 19.688 43.5406 18.3537 43.5406 16.6222V15.4H46.6442V16.8667C46.6442 18.2519 47.2112 18.9444 48.3452 18.9444C48.9022 18.9444 49.32 18.7815 49.5985 18.4556C49.897 18.1093 50.0462 17.5593 50.0462 16.8056C50.0462 15.9093 49.8472 15.125 49.4493 14.4528C49.0514 13.7602 48.3153 12.9352 47.241 11.9778C45.8882 10.7556 44.9432 9.65556 44.4061 8.67778C43.8689 7.67963 43.6003 6.55926 43.6003 5.31667C43.6003 3.62593 44.0181 2.32222 44.8537 1.40556C45.6893 0.468518 46.9028 0 48.4944 0C50.0661 0 51.2498 0.468518 52.0456 1.40556C52.8613 2.32222 53.2691 3.6463 53.2691 5.37778V6.26389H50.1655V5.16389C50.1655 4.43056 50.0263 3.90093 49.7478 3.575C49.4692 3.2287 49.0614 3.05556 48.5242 3.05556C47.43 3.05556 46.8829 3.73796 46.8829 5.10278C46.8829 5.87685 47.0819 6.6 47.4798 7.27222C47.8976 7.94444 48.6436 8.75926 49.7179 9.71667C51.0906 10.9389 52.0356 12.0491 52.5529 13.0472C53.0701 14.0454 53.3288 15.2167 53.3288 16.5611C53.3288 18.313 52.901 19.6574 52.0456 20.5944C51.21 21.5315 49.9865 22 48.375 22Z" fill="black" />
  <path d="M62.552 3.36111H59.1202V0.305555H69.2664V3.36111H65.8346V21.6944H62.552V3.36111Z" fill="black" />
  <path d="M80.2587 22C78.6472 22 77.4138 21.5315 76.5583 20.5944C75.7029 19.6574 75.2751 18.3333 75.2751 16.6222V5.37778C75.2751 3.66667 75.7029 2.34259 76.5583 1.40556C77.4138 0.468518 78.6472 0 80.2587 0C81.8702 0 83.1036 0.468518 83.9591 1.40556C84.8146 2.34259 85.2423 3.66667 85.2423 5.37778V16.6222C85.2423 18.3333 84.8146 19.6574 83.9591 20.5944C83.1036 21.5315 81.8702 22 80.2587 22ZM80.2587 18.9444C81.3927 18.9444 81.9597 18.2417 81.9597 16.8361V5.16389C81.9597 3.75833 81.3927 3.05556 80.2587 3.05556C79.1247 3.05556 78.5577 3.75833 78.5577 5.16389V16.8361C78.5577 18.2417 79.1247 18.9444 80.2587 18.9444Z" fill="black" />
  <path d="M92.2369 0.305555H97.1012C98.7922 0.305555 100.026 0.712963 100.802 1.52778C101.577 2.32222 101.965 3.55463 101.965 5.225V6.53889C101.965 8.75926 101.249 10.1648 99.8168 10.7556V10.8167C100.613 11.0611 101.17 11.5602 101.488 12.3139C101.826 13.0676 101.995 14.0759 101.995 15.3389V19.0972C101.995 19.7083 102.015 20.2074 102.055 20.5944C102.095 20.9611 102.194 21.3278 102.353 21.6944H99.011C98.8917 21.3481 98.8121 21.0222 98.7723 20.7167C98.7325 20.4111 98.7126 19.8611 98.7126 19.0667V15.1556C98.7126 14.1778 98.5535 13.4954 98.2352 13.1083C97.9367 12.7213 97.4095 12.5278 96.6535 12.5278H95.5195V21.6944H92.2369V0.305555ZM96.7132 9.47222C97.3697 9.47222 97.8572 9.29907 98.1755 8.95278C98.5137 8.60648 98.6828 8.02593 98.6828 7.21111V5.56111C98.6828 4.78704 98.5435 4.22685 98.265 3.88056C98.0064 3.53426 97.5886 3.36111 97.0116 3.36111H95.5195V9.47222H96.7132Z" fill="black" />
  <path d="M109.047 0.305555H118V3.36111H112.33V9.01389H116.836V12.0694H112.33V18.6389H118V21.6944H109.047V0.305555Z" fill="black" />
</svg>